<svg width="118" height="39" viewBox="0 0 118 39" fill="none" xmlns="http://www.w3.org/2000/svg">
<path d="M17.0704 0.5H4.0943C0.593696 0.5 0.244916 3.26622 0.362303 3.91082C0.499496 4.2206 0.691157 4.35345 0.888855 4.35345C1.44294 4.35345 1.32906 3.74898 3.85095 3.63866H17.0704C26.0758 3.63866 32.1199 11.2387 32.1199 19.526C32.1199 27.9041 26.1915 35.3625 17.0187 35.3625H5.44232C5.29975 35.3625 5.15857 35.3347 5.02685 35.2805C4.89513 35.2264 4.77545 35.147 4.67465 35.047C4.57384 34.947 4.49388 34.8283 4.43933 34.6976C4.38478 34.567 4.35672 34.4269 4.35673 34.2855L4.35504 34.2881L4.34019 18.6962C4.34019 13.9792 6.15341 11.9579 9.78433 12.1944C11.5978 12.3125 12.9072 12.0804 13.872 10.8161C15.8329 14.0308 12.3979 16.1436 10.3923 16.1469C9.31937 16.1478 9.67407 16.813 10.4767 17.2486C10.7676 17.407 11.9622 18.0651 11.9622 18.0651V18.2648C11.9647 19.6156 13.0695 20.7089 14.4314 20.7073C15.7933 20.7056 16.8954 19.6089 16.8938 18.258V18.0583L21.9366 18.0517L21.9384 19.2415C22.009 20.8606 23.1509 22.099 24.6001 22.2106C23.9674 24.2436 22.482 25.8256 20.6437 26.5764C17.1802 27.9917 13.1919 27.7596 11.0412 24.0314C10.4493 23.0047 9.45499 23.2095 9.85087 24.4911C11.5875 30.1087 18.0275 30.3707 21.5267 29.1318C27.3205 27.0806 28.2976 21.1728 28.0015 17.1508C27.9385 16.2879 27.2135 15.6192 26.3399 15.6201L14.8716 15.6365C16.5813 14.2687 17.1811 11.3577 15.5905 8.82383C15.0072 7.89401 14.3985 7.44455 13.4223 8.34095C12.0872 9.56785 10.7769 9.53431 9.40137 9.53599C4.15131 9.54282 0.984504 11.6146 0.984504 19.0113V24.6023H0.97762V36.1879C0.97762 37.4624 2.02263 38.5 3.30894 38.5H16.8114C28.7028 38.5 35.8025 30.1223 35.8025 19.4229C35.8025 8.82047 28.8006 0.5 17.0704 0.5ZM79.8631 25.2733L79.7835 25.2779L79.7432 25.3274C79.443 25.6947 79.0449 25.8812 78.56 25.8812C77.758 25.8812 77.4595 25.436 77.4595 24.2378V19.2139H78.5512C79.0097 19.2139 79.2228 19.0292 79.2228 18.6337V18.5299C79.2228 18.1346 79.0097 17.9497 78.5512 17.9497H77.4595V15.7675C77.4334 15.3508 77.1469 14.9224 76.5991 14.9055C76.0129 14.8729 75.8067 15.0142 75.8067 15.165C75.8067 15.3858 76.0776 15.1734 76.0776 16.0174L76.081 16.0143V17.9498H75.7886C75.33 17.9498 75.117 18.1347 75.117 18.53V18.6338C75.117 19.0292 75.33 19.2141 75.7886 19.2141H76.081V24.3585C76.081 26.2111 76.8801 27.1115 78.5263 27.1115C79.6749 27.1115 80.3626 26.5268 80.3626 25.9619C80.3627 25.5166 80.0322 25.2733 79.8631 25.2733ZM71.8953 26.2726C72.9561 25.4892 73.6109 24.218 73.6109 22.6966C73.6109 21.53 73.2311 20.5103 72.5849 19.7397C72.7419 19.59 72.8663 19.3836 72.957 19.1149C73.1585 18.5208 72.8452 17.81 72.5485 17.7118C72.3146 17.6339 72.1274 17.7187 72.0989 17.8496L72.0877 17.8907C72.0877 17.8907 71.8709 18.7519 71.3567 18.7468C70.7345 18.4188 70.01 18.2363 69.2187 18.2363C66.6642 18.2363 64.8094 20.0976 64.8094 22.6617C64.8094 25.2462 66.6642 27.1217 69.2187 27.1217C69.5562 27.1217 72.4501 27.0028 72.4501 29.4801C72.4501 30.7893 71.116 31.8542 69.4759 31.8542C67.5151 31.8542 66.6072 31.2164 65.9778 30.4966C65.5663 30.0255 65.4634 29.5331 65.4238 29.4192C65.3107 29.1013 65.0362 29.3647 65.0362 29.4801C65.0362 31.5914 67.0283 33.3088 69.4759 33.3088C71.9245 33.3088 73.9164 31.5914 73.9164 29.4801C73.9165 28.1378 73.1103 26.9565 71.8953 26.2726ZM66.2232 22.6617C66.2232 20.8202 67.4835 19.4831 69.2188 19.4831C70.9173 19.4831 72.1973 20.8644 72.1973 22.6966C72.1973 24.5381 70.945 25.8745 69.2188 25.8745C67.5109 25.8745 66.2232 24.4936 66.2232 22.6617ZM50.8494 14.3756C50.8494 14.3739 50.8502 14.3704 50.8502 14.3687C50.1954 14.3164 49.9503 14.4683 49.9503 14.6256C49.9503 14.849 50.2289 14.6352 50.2289 15.486V19.358C49.6766 18.7338 48.6952 18.1621 47.3316 18.1621C44.8918 18.1621 43.1871 20.0103 43.1871 22.6564C43.1871 25.241 44.9002 27.1166 47.2627 27.1166C48.4819 27.1166 49.4616 26.6787 50.2464 25.781V26.3051C50.2464 26.7512 50.4559 26.9774 50.871 26.9774H50.9935C51.4132 26.9774 51.635 26.7451 51.635 26.3051V15.5774C51.6312 14.8053 51.3713 14.4149 50.8494 14.3756ZM47.385 25.8598C45.7779 25.8598 44.6111 24.5048 44.6111 22.6393C44.6111 20.713 45.7401 19.4189 47.4198 19.4189C48.7375 19.4189 49.6817 20.0264 50.2289 21.2233V23.5037C50.0699 24.8181 48.8342 25.8598 47.385 25.8598ZM96.3726 18.1619C95.149 18.1619 94.1693 18.6037 93.3882 19.5105C93.3841 18.7382 93.125 18.3477 92.6029 18.3094V18.3017C91.9486 18.2495 91.7259 18.4009 91.7259 18.5592C91.7259 18.7819 91.9994 18.5677 91.9994 19.419V29.6232C91.9994 30.0634 92.2213 30.2951 92.6416 30.2951H92.7644C93.1836 30.2951 93.4058 30.0633 93.4058 29.6232V25.825C93.9582 26.4998 94.9393 27.1166 96.3029 27.1166C98.7437 27.1166 100.448 25.2687 100.448 22.6222C100.448 20.0377 98.734 18.1619 96.3726 18.1619ZM96.2148 25.8598C94.657 25.8598 93.3882 24.6649 93.3882 23.1951V21.2771C93.9241 20.0788 94.9393 19.4189 96.25 19.4189C97.8562 19.4189 99.0231 20.7729 99.0231 22.6393C99.0231 24.5656 97.8954 25.8598 96.2148 25.8598ZM58.6204 18.1619C56.0458 18.1619 54.1772 20.0376 54.1772 22.6221C54.1772 25.2262 56.0458 27.1165 58.6204 27.1165C61.1844 27.1165 63.0461 25.2409 63.0461 22.6564C63.0462 20.0524 61.1845 18.1619 58.6204 18.1619ZM58.6204 25.8598C56.8994 25.8598 55.6014 24.4679 55.6014 22.6222C55.6014 20.7663 56.8707 19.419 58.6204 19.419C60.3317 19.419 61.622 20.8108 61.622 22.6564C61.622 24.5123 60.3596 25.8598 58.6204 25.8598ZM85.4712 18.1619C82.897 18.1619 81.0283 20.0376 81.0283 22.6221C81.0283 25.2262 82.897 27.1165 85.4712 27.1165C88.0352 27.1165 89.897 25.2409 89.897 22.6564C89.8971 20.0524 88.0353 18.1619 85.4712 18.1619ZM85.4712 25.8598C83.7504 25.8598 82.4523 24.4679 82.4523 22.6222C82.4523 20.7663 83.7217 19.419 85.4712 19.419C87.1828 19.419 88.473 20.8108 88.473 22.6564C88.4731 24.5123 87.2106 25.8598 85.4712 25.8598ZM103.596 14.8087C103.005 14.8087 102.691 15.1125 102.691 15.6888C102.691 16.2489 103.008 16.5687 103.561 16.5687C104.153 16.5687 104.466 16.2648 104.466 15.6888C104.466 15.1125 104.165 14.8087 103.596 14.8087ZM104.268 19.3384C104.228 18.6825 104.018 18.3519 103.406 18.2973C102.972 18.2741 102.733 18.3451 102.639 18.4455C102.607 18.4779 102.592 18.5559 102.593 18.5577L102.592 18.5584C102.592 18.6843 102.68 18.6714 102.757 18.7878C102.815 18.8785 102.865 19.0472 102.865 19.4138C102.865 19.4138 102.866 19.4129 102.866 19.4121V26.3061C102.866 26.7453 103.088 26.9773 103.508 26.9773H103.631C104.051 26.9773 104.273 26.7453 104.273 26.3061C104.273 26.306 104.267 19.4727 104.268 19.3384ZM114.053 25.8633V21.5102C114.053 19.4454 112.706 18.1629 110.538 18.1629C108.347 18.1629 107.007 19.4856 107.007 20.2064C107.007 20.5609 107.194 20.7571 107.351 20.8587C107.437 20.9137 107.727 21.0438 107.931 21.0025C107.936 20.9539 107.944 20.8629 108.034 20.7148C108.555 19.9104 109.403 19.4711 110.451 19.4711C111.878 19.4711 112.664 20.2074 112.664 21.5445V21.707H112.62C108.52 21.7996 106.691 22.7087 106.691 24.6546C106.691 26.1621 107.843 27.0997 109.698 27.0997C110.902 27.0997 111.968 26.6387 112.682 25.8241C112.7 26.5998 112.988 26.9738 113.609 26.9738C114.147 26.9916 114.34 26.8548 114.34 26.7092C114.339 26.4866 114.053 26.6717 114.053 25.8633ZM112.664 23.4901C112.664 24.8839 111.461 25.8943 109.803 25.8943C108.762 25.8943 108.115 25.4189 108.115 24.6545C108.115 23.5161 109.37 22.9833 112.313 22.8763L112.664 22.8635V23.4901ZM66.1144 33.1171C65.3386 32.7088 64.8024 32.2505 64.49 30.8986C64.4713 30.8159 64.4019 30.8628 64.3848 30.902C64.1361 31.4914 64.0715 32.049 64.5332 32.6785C64.9949 33.307 65.9794 33.3203 66.1195 33.2255C66.1582 33.1994 66.1671 33.1442 66.1144 33.1171ZM115.705 26.2244C115.705 25.8058 116.007 25.4976 116.431 25.4976C116.858 25.4976 117.156 25.7997 117.156 26.2205C117.156 26.6416 116.853 26.95 116.429 26.95C116 26.95 115.705 26.6475 115.705 26.2244ZM117.017 26.2244C117.017 25.877 116.77 25.6245 116.429 25.6245C116.078 25.6245 115.844 25.8724 115.844 26.2231C115.844 26.5679 116.087 26.823 116.431 26.823C116.78 26.823 117.017 26.5748 117.017 26.2244ZM116.536 26.5336L116.403 26.3454H116.324V26.5115C116.324 26.5697 116.294 26.6047 116.235 26.6047H116.207C116.151 26.6047 116.12 26.5619 116.12 26.4898V25.9548C116.12 25.8812 116.159 25.8428 116.226 25.8428H116.459C116.666 25.8428 116.778 25.9225 116.778 26.0866C116.778 26.2014 116.714 26.2812 116.599 26.3085L116.773 26.5355C116.782 26.548 116.723 26.6088 116.655 26.6088C116.619 26.6088 116.57 26.592 116.536 26.5336ZM116.32 26.1965H116.449C116.529 26.1965 116.573 26.1606 116.573 26.0993C116.573 26.0329 116.529 26.0001 116.444 26.0001H116.32V26.1965Z" fill="black"/>
</svg>
