<svg width="102" height="18" viewBox="0 0 102 18" fill="none" xmlns="http://www.w3.org/2000/svg">
<path d="M11.4318 8.82841L11.7018 8.85827C12.8082 8.91487 13.1655 9.11453 13.2857 9.20099C13.3762 9.28588 13.5853 9.57043 13.5853 10.6835V14.4549C13.6004 14.5978 13.5574 14.7408 13.4651 14.8542C13.4059 14.9108 13.2264 15.0256 12.4773 15.2535C12.1198 15.3732 11.7482 15.4503 11.3709 15.4831C11.0345 15.5359 10.6943 15.5642 10.3534 15.568C9.55778 15.5782 8.7688 15.4284 8.0378 15.1283C7.3068 14.8282 6.65015 14.3845 6.11059 13.8261C4.97291 12.6549 4.38185 10.9963 4.38185 8.91487C4.38185 6.37437 4.94986 4.51301 6.11718 3.41255C7.27626 2.34981 8.62138 1.77757 10.1163 1.77757C11.6113 1.77757 12.7769 2.23348 13.7039 3.17673C14.2121 3.71963 14.7203 4.5476 15.2285 5.66064L15.319 5.832H16.4007L16.1867 0.291947H15.1396L15.0507 0.463305C14.9913 0.636114 14.8897 0.792938 14.7543 0.920784C14.695 0.977379 14.5748 1.03555 14.1879 1.03555C14.1566 1.03555 13.8883 1.00568 12.6617 0.664533C11.7087 0.403129 10.7226 0.268235 9.73107 0.263649C7.01612 0.263649 4.76546 1.17861 3.12069 2.97865C1.6259 4.58982 0.815555 6.67618 0.84863 8.82841C0.84863 11.3988 1.8052 13.5117 3.72328 15.0523C5.42897 16.4515 7.55121 17.1369 10.062 17.1369C11.4995 17.1266 12.9249 16.8853 14.2785 16.4232C16.2213 15.7943 16.6098 15.4233 16.6098 15.0523V10.3989C16.6098 9.74179 16.7596 9.28588 16.9984 9.08623C17.0873 9.02806 17.3277 8.9133 18.0438 8.8567L18.3139 8.82841V7.85214H11.4318V8.82841ZM36.0392 1.54805L36.3092 1.57792C37.116 1.66281 37.684 1.83417 37.9557 2.12029C38.1055 2.26178 38.3442 2.77585 38.3442 4.34637V10.5137C38.3442 11.9694 38.1647 13.0542 37.8058 13.7396C37.1473 14.9391 35.9223 15.5381 33.9795 15.5381C32.2459 15.5381 31.0786 14.9674 30.4809 13.7962C30.1516 13.1391 29.9722 12.1974 29.9722 11.0278V3.40469C29.9722 2.37654 30.1813 2.06212 30.3014 1.94893C30.4216 1.83574 30.8102 1.63451 31.9759 1.57792L32.2442 1.54962V0.54977H24.6476V1.54805L24.916 1.57792C26.0537 1.66281 26.4422 1.86247 26.5624 1.97723C26.6826 2.09199 26.8917 2.40484 26.8917 3.43299V10.8218C26.8917 12.3342 27.1601 13.562 27.7297 14.5037C28.7456 16.2455 30.6933 17.1605 33.4692 17.1605C36.2796 17.1605 38.224 16.2455 39.2695 14.4769C39.8079 13.5337 40.1075 12.1927 40.1075 10.509V4.31807C40.1075 2.77742 40.3463 2.29165 40.4961 2.11715C40.6755 1.91749 41.0937 1.65967 42.1705 1.54648L42.4389 1.51818V0.54977H36.1001V1.54962L36.0392 1.54805ZM62.5301 12.3971C61.9325 13.6815 61.2443 14.4816 60.5281 14.7961C59.7806 15.1388 58.5524 15.3101 56.9389 15.3101C55.0554 15.3101 54.4281 15.2535 54.219 15.1954C54.1597 15.1671 53.9803 15.1388 53.9803 14.6247V9.05793H57.5085C58.7648 9.05793 59.1829 9.28588 59.3015 9.40065C59.481 9.572 59.7213 9.99961 59.9304 11.0844L59.9897 11.3123H61.1257V5.28805H59.9897L59.9304 5.51758C59.7213 6.57403 59.481 7.02993 59.3015 7.20129C59.1829 7.34435 58.7648 7.5723 57.5085 7.5723H53.9803V2.54161C53.9803 2.1706 54.0395 2.08413 54.0395 2.08413C54.1825 2.03139 54.3366 2.01198 54.489 2.02754H57.8675C59.6011 2.02754 60.2597 2.25549 60.5017 2.42685C60.7438 2.59821 61.0994 3.08398 61.3381 4.28349L61.3974 4.51144H62.5943L62.4445 0.543482H48.6574V1.54805L48.9274 1.57792C50.0321 1.66281 50.3911 1.86247 50.5113 1.97723C50.6314 2.09199 50.8093 2.43314 50.8093 3.43299V13.966C50.8093 15.0507 50.6002 15.3369 50.5113 15.4218C50.3911 15.5365 50.0025 15.7079 48.8961 15.8226L48.6278 15.8509V16.8209H62.5598L63.8456 12.2619H62.5598L62.5301 12.3971ZM78.856 7.6006L76.6729 6.3162C76.0302 5.96289 75.4459 5.52051 74.9392 5.00351C74.6007 4.62084 74.4198 4.13347 74.4305 3.63264C74.4156 3.37028 74.4678 3.10842 74.5826 2.86961C74.6973 2.6308 74.8711 2.4222 75.089 2.26178C75.5392 1.92017 76.0996 1.73846 76.6745 1.7477C77.4813 1.7477 78.3209 2.03382 79.1557 2.60449C79.9904 3.17516 80.5914 4.17659 80.9799 5.63077L81.0392 5.85872H82.2048L81.599 0.235352H80.5815L80.5222 0.435007C80.4815 0.606983 80.4108 0.771199 80.3131 0.920784C80.2019 1.00044 80.065 1.04048 79.9262 1.03397C79.8949 1.03397 79.6858 1.00568 78.6387 0.662961C77.9541 0.407501 77.2296 0.262978 76.4951 0.235352C75.0594 0.235352 73.8608 0.662961 72.9668 1.51975C72.525 1.93626 72.1777 2.43504 71.9463 2.98512C71.7149 3.5352 71.6044 4.12482 71.6217 4.71739C71.6217 5.68737 72.0086 6.57245 72.756 7.40095C73.2289 7.87167 73.7616 8.28413 74.3415 8.62875L76.4638 9.88642C77.6607 10.6002 78.4395 11.1441 78.7968 11.4852C79.0515 11.7219 79.2521 12.0064 79.3859 12.3208C79.5197 12.6353 79.5837 12.9728 79.5739 13.312C79.5739 14.0839 79.3351 14.6829 78.8264 15.1105C78.3135 15.5389 77.6539 15.7727 76.9725 15.7676C75.5978 15.7676 74.4617 15.2535 73.5348 14.2254C72.9964 13.6264 72.5173 12.7979 72.0991 11.7714L72.0398 11.6H70.9334L71.7698 17.2234H72.817L72.8466 16.9954C72.8758 16.8335 72.9366 16.6783 73.0261 16.5379C73.0573 16.453 73.1759 16.4232 73.3553 16.4232C73.385 16.4232 73.6254 16.453 74.7005 16.8241C75.5073 17.0986 76.3564 17.2431 77.2129 17.2517C78.7968 17.2517 80.1435 16.7958 81.1643 15.939C81.6679 15.5326 82.0711 15.0249 82.3449 14.4522C82.6187 13.8795 82.7564 13.2561 82.7482 12.6266C82.7679 11.6888 82.4519 10.7726 81.8525 10.0295C81.2466 9.20099 80.2604 8.42909 78.856 7.6006ZM100.653 9.88485C100.085 9.20099 99.0675 8.42909 97.6894 7.6006L95.5063 6.3162C94.8674 5.9617 94.2866 5.51941 93.7825 5.00351C93.4439 4.62084 93.2631 4.13347 93.2737 3.63264C93.2589 3.37028 93.3111 3.10842 93.4258 2.86961C93.5406 2.6308 93.7144 2.4222 93.9323 2.26178C94.3824 1.92017 94.9429 1.73846 95.5178 1.7477C96.3245 1.7477 97.1642 2.03382 97.999 2.60449C98.8337 3.17516 99.4346 4.17659 99.8232 5.63077L99.8825 5.85872H101.048L100.442 0.235352H99.4248L99.3655 0.435007C99.3248 0.606983 99.2541 0.771199 99.1564 0.920784C99.0447 1.00068 98.9072 1.04072 98.7678 1.03397C98.7382 1.03397 98.5291 1.00568 97.482 0.662961C96.7942 0.406615 96.0663 0.262079 95.3285 0.235352C93.8944 0.235352 92.6942 0.662961 91.8002 1.51975C91.3587 1.93649 91.0116 2.43531 90.7802 2.98533C90.5489 3.53535 90.4382 4.12487 90.4551 4.71739C90.4551 5.68737 90.8436 6.57245 91.5911 7.40095C92.0634 7.87168 92.5954 8.28415 93.1749 8.62875L95.2988 9.88642C96.4941 10.6002 97.2745 11.1441 97.6318 11.4852C97.8863 11.722 98.0868 12.0066 98.2205 12.321C98.3543 12.6354 98.4184 12.9728 98.4089 13.312C98.4089 14.0839 98.1685 14.6829 97.6318 15.1105C97.1178 15.538 96.458 15.7716 95.7763 15.7676C94.4015 15.7676 93.2655 15.2535 92.3386 14.2254C91.8002 13.6264 91.3211 12.7979 90.9029 11.7714L90.8436 11.6H89.7372L90.5736 17.2234H91.6207L91.6504 16.9954C91.6817 16.8379 91.7319 16.6844 91.8002 16.5379C91.8298 16.453 91.9484 16.4232 92.1295 16.4232C92.1608 16.4232 92.3995 16.453 93.4762 16.8241C94.2825 17.0988 95.131 17.2433 95.987 17.2517C97.5725 17.2517 98.9177 16.7958 99.9384 15.939C100.442 15.5322 100.845 15.0242 101.118 14.4512C101.392 13.8783 101.529 13.2546 101.521 12.625C101.549 11.4837 101.251 10.6269 100.653 9.88485Z" fill="black"/>
</svg>
