<svg width="243" height="59" viewBox="0 0 243 59" fill="none" xmlns="http://www.w3.org/2000/svg">
<g clip-path="url(#clip0_3868_42409)">
<path d="M151.98 8.72H153.01L152.16 0.09L152.07 0H151.81V0.09L150.87 8.72H151.98ZM156.85 9.32V9.23L158.3 1.54V1.45L158.04 1.36L157.95 1.45L154.79 8.8L156.84 9.31L156.85 9.32ZM155.31 12.65C155.91 12.65 156.51 12.14 156.51 11.45C156.51 10.76 156 10.25 155.31 10.25C154.62 10.25 154.11 10.76 154.11 11.45C154.11 12.14 154.62 12.65 155.31 12.65ZM151.98 12.22C152.58 12.22 153.18 11.71 153.18 11.02C153.18 10.33 152.67 9.82 151.98 9.82C151.29 9.82 150.78 10.33 150.78 11.02C150.69 11.79 151.29 12.22 151.98 12.22ZM147.11 9.32L149.07 8.81H149.16L145.91 1.46L145.82 1.37L145.65 1.46L145.56 1.55L147.01 9.24L147.1 9.33L147.11 9.32ZM147.37 11.37C147.37 12.05 147.88 12.57 148.57 12.57C149.17 12.57 149.77 12.06 149.77 11.37C149.77 10.68 149.26 10.17 148.57 10.17C147.97 10.26 147.37 10.77 147.37 11.37ZM10.34 14.79H0C0 14.79 0.26 17.27 0.26 21.54V43.15C0.26 47.42 0 49.9 0 49.9L0.09 49.99H6.84V49.9C6.84 49.9 6.58 47.42 6.58 43.15V36.83L6.67 36.74C7.61 36.83 9.66 36.91 10.34 36.91C17.26 36.91 23.24 32.72 23.24 25.55C23.15 18.72 17.17 14.79 10.34 14.79ZM10 31.19C9.23 31.19 7.35 31.1 6.58 30.93V20.51H10.51C14.01 20.51 16.75 21.88 16.75 25.55C16.75 29.22 14.36 31.19 10 31.19ZM42.38 17.61C41.61 15.82 41.35 14.79 41.35 14.79L41.26 14.7H35.88L35.79 14.79C35.79 14.79 35.62 15.82 34.85 17.61L22.97 46.14C21.94 48.53 20.92 49.9 20.92 49.9V49.99H27.84L27.93 49.9C27.93 49.73 28.1 48.87 28.96 46.74L31.1 41.36H46.39L48.7 46.74C49.47 48.79 49.9 49.9 49.9 49.9L49.99 49.99H56.91V49.9C56.91 49.9 55.97 48.62 54.86 46.14L42.39 17.61H42.38ZM33.5 35.55L38.46 23.16H38.55L43.93 35.55H33.51H33.5ZM91.59 14.79L85.44 14.7L85.35 14.79C85.35 14.79 85.61 17.27 85.61 21.54V39.22H85.52L66.55 14.79H59.8C60.57 16.41 61 17.52 61 18.29V43.15C61 47.42 60.74 49.9 60.74 49.9L60.83 49.99H66.98L67.07 49.9C67.07 49.9 66.81 47.42 66.81 43.15V25.12H66.9L85.95 49.9H91.67L91.76 49.81C91.76 49.81 91.5 47.33 91.5 43.06V21.53C91.33 17.26 91.59 14.78 91.59 14.78V14.79ZM110.73 14.79H98.94L98.85 14.88C98.85 14.88 99.11 17.36 99.11 21.63V43.24C99.11 47.51 98.85 49.99 98.85 49.99L98.94 50.08H102.53C104.92 50.08 107.57 50.42 110.56 50.42C121.32 50.42 129.01 42.82 129.01 32.56C129.01 22.3 121.58 14.79 110.73 14.79ZM110.3 44.44C108.59 44.44 107.05 44.35 106.11 44.1C105.6 43.93 105.43 43.76 105.43 42.82V20.52H110.13C117.73 20.52 122.6 25.65 122.6 32.48C122.6 39.31 117.73 44.44 110.3 44.44ZM151.99 14.28C141.82 14.28 133.96 22.14 133.96 32.31C133.96 42.48 141.82 50.34 151.99 50.34C162.16 50.34 170.02 42.57 170.02 32.31C170.02 22.05 162.25 14.28 151.99 14.28ZM151.99 44.61C145.5 44.61 140.37 39.31 140.37 32.39C140.37 25.47 145.41 20.17 151.99 20.17C158.57 20.17 163.61 25.47 163.61 32.39C163.61 39.31 158.57 44.61 151.99 44.61ZM195.05 38.03C194.2 36.66 192.91 35.55 191.55 35.13V35.04C195.22 34.27 198.64 30 198.64 25.73C198.64 19.92 194.2 14.79 187.28 14.79H176L175.91 14.88C175.91 14.88 176.17 17.36 176.17 21.63V43.24C176.17 47.51 175.91 49.99 175.91 49.99L176 50.08H182.75L182.84 49.99C182.84 49.99 182.58 47.51 182.58 43.24V36.49C185.91 36.49 187.28 37.17 188.47 39.05L191.37 43.58C193.76 47.42 194.7 49.82 194.7 49.82L194.79 49.91H202.82V49.82C202.82 49.82 200.77 47.34 198.46 43.58L195.04 38.03H195.05ZM185.74 30.85C184.97 30.85 183.52 30.85 182.58 30.68V20.51H186.42C190.18 20.51 192.23 22.99 192.23 25.81C192.23 28.46 190.18 30.85 185.74 30.85ZM240.16 46.14L227.69 17.61C226.92 15.82 226.66 14.79 226.66 14.79L226.57 14.7H221.1L221.01 14.79C221.01 14.79 220.84 15.82 220.07 17.61L208.28 46.14C207.25 48.53 206.23 49.9 206.23 49.9V49.99H213.15L213.24 49.9C213.24 49.73 213.41 48.87 214.27 46.74L216.41 41.36H231.7L234.01 46.74C234.78 48.79 235.21 49.9 235.21 49.9L235.3 49.99H242.22V49.9C242.22 49.9 241.28 48.62 240.17 46.14H240.16ZM218.8 35.55L223.76 23.16H223.85L229.23 35.55H218.81H218.8Z" fill="black"/>
</g>
<defs>
<clipPath id="clip0_3868_42409">
<rect width="242.22" height="58.42" fill="white"/>
</clipPath>
</defs>
</svg>
