<svg width="142" height="19" viewBox="0 0 142 19" fill="none" xmlns="http://www.w3.org/2000/svg">
<path d="M108.429 7.40688C110.057 8.03507 112.24 8.29569 113.905 8.80093C115.815 9.38039 117.381 10.5093 117.375 13.1486C117.368 16.2924 115.075 18.9019 110.539 18.884C108.806 18.8978 106.47 18.198 104.986 17.3091L104.612 12.9131L105.058 12.9148C105.633 15.9806 107.757 17.9273 110.839 17.9396C113.218 17.9493 115.118 16.854 115.555 14.7597C116.15 11.9006 113.974 11.1974 113.419 11.0021C112.011 10.5039 109.858 10.2273 107.95 9.60305C105.896 8.93003 104.509 7.6409 104.515 5.34651C104.522 2.09765 107.532 0.11021 111.397 0.137928C113.769 0.155042 115.697 0.928889 115.987 1.08663L116.288 4.94266H115.897C115.438 2.44905 113.474 1.0232 110.961 1.01334C108.212 1.00274 106.578 2.61908 106.359 4.16063C106.098 5.99257 107.168 6.92286 108.427 7.40874L108.429 7.40688ZM4.76019 7.40874C3.50006 6.92286 2.43101 5.99257 2.69136 4.16063C2.91122 2.61908 4.54614 1.00274 7.2936 1.01334C9.80724 1.0232 11.7706 2.44905 12.2294 4.94266H12.6206L12.3194 1.08663C12.0295 0.928703 10.1005 0.15467 7.72958 0.137928C3.86452 0.11114 0.855016 2.09858 0.847675 5.34651C0.841839 7.64072 2.22884 8.93003 4.28279 9.60305C6.19029 10.2273 8.34307 10.5039 9.75153 11.0021C10.3057 11.1974 12.4826 11.9006 11.8872 14.7597C11.4506 16.8538 9.55066 17.9493 7.17125 17.9396C4.08927 17.9273 1.96529 15.9806 1.39039 12.9148L0.944809 12.9131L1.31885 17.3095C2.80205 18.1983 5.1378 18.8981 6.87212 18.8844C11.4077 18.903 13.7005 16.2922 13.7071 13.149C13.7137 10.5097 12.1471 9.38075 10.2381 8.8013C8.57291 8.29589 6.38964 8.03545 4.76131 7.40726L4.76019 7.40874ZM139.981 2.01656C139.981 0.804627 141.067 0.848713 141.787 0.848713V0.455465H135.948V0.848713C136.672 0.848713 137.759 0.804813 137.759 2.01656L137.754 17.0697C137.754 18.2824 136.668 18.2376 135.948 18.2376V18.6306H141.786V18.2376C141.061 18.2376 139.975 18.2824 139.975 17.0697L139.981 2.01656ZM88.9148 3.13752L94.6115 18.6303H96.3005L101.883 2.72344C102.483 1.0152 103.281 0.847413 104.431 0.847413V0.455095H98.8957V0.847413C99.3348 0.828571 99.7746 0.858334 100.207 0.936143C100.981 1.12663 101.025 1.78663 100.963 2.23829C100.881 2.65253 100.762 3.05865 100.607 3.45172L96.1526 16.2872H96.1L91.6677 4.23299C91.4109 3.59728 91.2126 2.94002 91.0754 2.26916C90.9813 1.63763 91.2096 1.23396 91.4936 1.05892C91.771 0.888894 92.0414 0.848899 92.7172 0.848899V0.456581H86.2792V0.848899C87.7758 0.848899 88.3069 1.48453 88.9146 3.13845L88.9148 3.13752ZM43.103 2.22695C43.3764 1.47319 43.0938 1.09408 42.6714 0.941724C42.3882 0.863713 42.0938 0.83266 41.8001 0.849829V0.456767H45.3586L51.272 15.9503C51.9111 17.5283 52.3567 18.2396 53.938 18.2396V18.6319H47.5V18.2396C48.1752 18.2396 48.4454 18.2006 48.7198 18.0296C49.0022 17.8546 49.2247 17.4509 49.1225 16.8194C48.9761 16.1478 48.769 15.4906 48.5041 14.8555L47.5874 12.449H40.3932L39.2481 15.634C39.0877 16.0267 38.9637 16.4329 38.8776 16.8476C38.8099 17.2993 38.8454 17.9586 39.6172 18.1498C40.0477 18.2269 40.4855 18.2564 40.9225 18.2378V18.6301H35.3891V18.2378C36.5389 18.2378 37.3468 18.0588 37.9629 16.3627L43.102 2.22509L43.103 2.22695ZM47.2563 11.5805L43.9123 2.79897H43.8589L40.7044 11.5805H47.2563ZM59.3743 10.3341V10.3821L66.7776 18.6297H70.7041V18.2366C69.93 18.2366 68.7652 17.8224 67.5981 16.5267L62.4895 10.8509C65.7517 10.4918 68.504 8.80465 68.504 5.37758C68.504 2.48422 66.1683 0.454534 61.7729 0.454534H54.8699V0.847785C55.5955 0.847785 56.6819 0.802953 56.6819 2.01563L56.676 17.0688C56.676 18.2807 55.5897 18.2366 54.8699 18.2366V18.6297H60.7102V18.2366C59.9845 18.2366 58.8982 18.2806 58.8982 17.0688L58.9032 1.27433H60.336C62.0969 1.27433 66.3412 1.18969 66.3412 5.55114C66.3412 10.0828 62.0971 10.3341 60.336 10.3341H59.3743ZM122.176 2.01543C122.176 0.803511 123.262 0.847599 123.982 0.847599V0.454348H118.142V0.847599C118.867 0.847599 119.953 0.803697 119.953 2.01543L119.948 17.0686C119.948 18.2813 118.862 18.2365 118.142 18.2365V18.6295H123.982V18.2365C123.257 18.2365 122.17 18.2813 122.17 17.0686L122.176 2.01543ZM131.865 16.7719L124.635 8.63834C124.635 8.63834 129.906 2.94796 130.467 2.35082C131.278 1.48174 132.095 0.847785 133.766 0.847785V0.454534H127.709V0.847785C127.882 0.847785 128.831 0.831413 129.146 0.940794C129.746 1.14839 129.829 1.74645 129.087 2.54969L122.614 9.52045V9.54409L130.613 18.6301H134.501V18.2378C133.627 18.2378 132.527 17.5166 131.865 16.7719ZM34.1189 0.455095V0.848341C34.5579 0.829242 34.9977 0.858756 35.4299 0.936329C36.205 1.12682 36.2817 1.78682 36.2206 2.23849C36.1429 2.65235 36.0278 3.05845 35.8763 3.45189L31.4232 16.2873H31.373L27.2731 4.23151C27.032 3.59493 26.8505 2.93781 26.7312 2.26843C26.6539 1.63688 26.8918 1.23229 27.1808 1.05743C27.47 0.882571 27.7474 0.84983 28.4055 0.848341V0.455095H22.0285V0.848341C23.5252 0.848341 24.0373 1.48304 24.6024 3.13639L26.1433 7.69L23.213 16.2868H23.1627L18.9986 4.23133C18.7539 3.59495 18.5684 2.93788 18.4444 2.26823C18.3636 1.6367 18.6 1.2321 18.8875 1.05724C19.1683 0.887034 19.4434 0.848155 20.1179 0.848155V0.454909H13.7011V0.848155C15.1975 0.848155 15.7138 1.48286 16.288 3.13622L21.6225 18.6297H23.3332L26.598 9.03308L29.8446 18.6301H31.5558L37.0971 2.72324C37.6883 1.02227 38.5039 0.848155 39.6545 0.848155V0.454909L34.1189 0.455095ZM79.1199 0.134766C85.1304 0.134766 87.5156 5.17909 87.5156 9.28588C87.5156 14.1308 84.0755 18.887 78.7221 18.887C73.2732 18.887 70.2417 14.6643 70.2417 9.56827C70.2417 4.05348 74.3563 0.134766 79.1201 0.134766H79.1199ZM73.4428 13.4781C74.4248 15.2562 75.8206 16.5781 77.3986 17.2331C78.812 17.8079 80.3953 17.822 81.8189 17.2723C85.3159 15.8896 85.4222 11.4525 85.4461 10.9697C85.6281 7.38697 84.0599 3.65911 81.1728 2.10919C79.6394 1.28717 77.2761 0.943771 75.1689 2.13523C73.6629 2.98665 72.27 4.6696 72.0863 7.88329C72.0024 9.83661 72.4725 11.7742 73.4434 13.4777" fill="#1A1818"/>
</svg>
