<?xml version="1.0" encoding="utf-8"?>
<!-- Generator: Adobe Illustrator 27.7.0, SVG Export Plug-In . SVG Version: 6.00 Build 0)  -->
<svg version="1.1" id="Layer_1" xmlns="http://www.w3.org/2000/svg" xmlns:xlink="http://www.w3.org/1999/xlink" x="0px" y="0px"
	 viewBox="0 0 77 21.6" style="enable-background:new 0 0 77 21.6;" xml:space="preserve">
<style type="text/css">
	.st0{fill:#1E1414;}
</style>
<g id="Layer_1_00000168829347337416306580000010789819070763346317_" focusable="false">
	<path class="st0" d="M10.7,3.3h10V5h-4v13.3h-1.9V5h-4V3.3z M36.2,7.7c0.4,1,0.6,2,0.6,3.1c0,1.5-0.3,2.8-1.1,4
		c-0.7,1.2-1.7,2.1-2.9,2.8c-1.3,0.6-2.6,1-4.1,1s-2.8-0.3-4-1c-1.2-0.7-2.2-1.6-2.9-2.8c-0.7-1.2-1.1-2.5-1.1-4
		c0-1.1,0.2-2.1,0.6-3.1s1-1.8,1.7-2.5c0.7-0.6,1.6-1.2,2.5-1.6s2-0.6,3.1-0.6S31,3.2,32,3.6c1,0.4,1.8,0.9,2.5,1.6
		C35.3,5.9,35.8,6.7,36.2,7.7L36.2,7.7z M34.9,10.8c0-1.3-0.3-2.3-0.8-3.3c-1.1-1.9-3-2.9-5.2-2.9c-1.7,0-3.2,0.6-4.3,1.6
		c-1.1,1-1.8,2.7-1.8,4.5s0.7,3.5,1.8,4.5c1.1,1,2.6,1.6,4.3,1.6c1.1,0,2.1-0.2,3-0.7c0.9-0.5,1.6-1.2,2.2-2.1
		C34.6,13.2,34.9,12,34.9,10.8L34.9,10.8z M51,3.3l-4.5,11l-4.4-11h-0.6l-4,15h1.9l2.7-10l4.2,10h0.4l4.3-10l2.7,10h1.9l-4-15H51z
		 M62.2,9.7c-2.1-0.9-3.3-1.8-3.3-3.1c0-0.6,0.2-1.1,0.7-1.5c0.5-0.4,1.1-0.6,1.8-0.6c1.3,0,2.4,0.6,3.5,1.7h0.3l-0.1-2
		c-1-0.8-2.1-1.2-3.6-1.2c-1.2,0-2.2,0.3-3.1,1c-0.8,0.7-1.3,1.6-1.3,2.7c0,1,0.3,1.8,1,2.5s1.6,1.4,2.8,1.8c1,0.4,1.8,0.8,2.3,1.4
		c0.6,0.5,0.9,1.2,0.9,1.9s-0.2,1.4-0.8,1.9c-0.5,0.5-1.2,0.7-2.1,0.7c-0.8,0-1.6-0.2-2.2-0.6c-0.6-0.4-1.3-1-1.8-1.7h-0.2L57,16.9
		c1.2,1.1,2.7,1.7,4.4,1.7c1.4,0,2.6-0.4,3.5-1.3c0.9-0.9,1.4-1.9,1.4-3.2C66.2,12.2,64.8,10.8,62.2,9.7L62.2,9.7z"/>
</g>
</svg>
